# xmcd
#
# Track frame offsets: 
#        150
#        15535
#        37417
#        68692
#        88511
#        109071
#        124821
#        144331
#
# Disc length: 2303 seconds
#
# Revision: 0
# Processed by: cddbd v1.5.2PL0 Copyright (c) Steve Scherf et al.
# Submitted via: ExactAudioCopy v1.3
#
DISCID=6808fd08
DTITLE=THE CHRIS HARLAND BLUES BAND - Fresh Blues
DYEAR=2005
DGENRE=Blues
TTITLE0=Hume Highway Blues
TTITLE1=You Used Me
TTITLE2=Someshow, Someday, Somewhere
TTITLE3=Sloping Blues
TTITLE4=My Love For You
TTITLE5=No One Really Knows (What I'm Going Through)
TTITLE6=Had Enough Of You
TTITLE7=Blues Guitar
EXTD=
EXTT0=
EXTT1=
EXTT2=
EXTT3=
EXTT4=
EXTT5=
EXTT6=
EXTT7=
PLAYORDER=
